<svg
        width="96"
        height="97"
        viewBox="0 0 96 97"
        fill="currentColor"
        xmlns="http://www.w3.org/2000/svg"
>
    <path
            d="M48.555 15.0979C48.54 15.1039 48.378 15.1309 48.195 15.1549C48.015 15.1819 47.799 15.2149 47.715 15.2299C47.634 15.2449 47.445 15.2779 47.295 15.3019C47.148 15.3289 46.959 15.3619 46.875 15.3769C46.728 15.4039 46.302 15.4789 46.005 15.5329C45.924 15.5449 45.789 15.5719 45.705 15.5869C45.624 15.6019 45.426 15.6379 45.27 15.6649C45.114 15.6919 44.925 15.7249 44.85 15.7399C44.775 15.7519 44.58 15.7879 44.415 15.8149C44.25 15.8419 44.055 15.8749 43.98 15.8899C43.8 15.9259 43.569 15.9679 43.245 16.0249C43.098 16.0519 42.909 16.0849 42.825 16.0999C42.744 16.1149 42.546 16.1479 42.39 16.1749C42.234 16.2019 42.039 16.2379 41.955 16.2529C41.778 16.2859 41.61 16.3159 41.22 16.3849C41.064 16.4119 40.875 16.4449 40.8 16.4599C40.725 16.4749 40.536 16.5079 40.38 16.5349C39.972 16.6039 39.807 16.6339 39.705 16.6549C39.657 16.6639 39.501 16.6909 39.36 16.7149C39.219 16.7389 39.066 16.7659 39.015 16.7749C38.802 16.8199 38.637 16.8499 38.355 16.8949C38.19 16.9219 37.995 16.9579 37.92 16.9699C37.845 16.9849 37.656 17.0179 37.5 17.0449C37.344 17.0719 37.155 17.1049 37.08 17.1199C36.9 17.1529 36.639 17.2009 36.33 17.2579C36.189 17.2819 36.015 17.3149 35.94 17.3299C35.805 17.3539 35.37 17.4319 35.085 17.4799C35.004 17.4949 34.86 17.5219 34.77 17.5369C34.68 17.5549 34.485 17.5909 34.335 17.6149C34.188 17.6419 34.005 17.6749 33.93 17.6899C33.855 17.7019 33.66 17.7379 33.495 17.7649C33.33 17.7919 33.129 17.8279 33.045 17.8429C32.691 17.9119 32.61 17.9269 32.325 17.9749C32.16 18.0019 31.965 18.0379 31.89 18.0499C31.815 18.0649 31.626 18.0979 31.47 18.1249C31.314 18.1519 31.125 18.1849 31.05 18.1999C30.975 18.2149 30.78 18.2479 30.615 18.2749C30.33 18.3229 30.225 18.3409 29.889 18.4069C29.808 18.4219 29.616 18.4579 29.46 18.4849C29.304 18.5119 29.109 18.5449 29.025 18.5599C28.944 18.5749 28.746 18.6079 28.59 18.6349C28.434 18.6619 28.242 18.6979 28.164 18.7129C27.915 18.7609 27.744 18.7909 27.435 18.8449C27.27 18.8719 27.075 18.9079 27 18.9199C26.925 18.9349 26.736 18.9679 26.58 18.9949C26.424 19.0219 26.235 19.0549 26.16 19.0699C26.019 19.0969 25.842 19.1269 25.395 19.2049C25.248 19.2319 25.065 19.2649 24.99 19.2799C24.915 19.2949 24.726 19.3279 24.57 19.3549C24.414 19.3819 24.219 19.4149 24.135 19.4299C23.856 19.4809 23.685 19.5109 23.445 19.5499C23.313 19.5709 23.178 19.5979 23.145 19.6099C23.112 19.6249 23.031 19.6429 22.965 19.6519C22.836 19.6699 22.365 19.7479 22.125 19.7929C22.044 19.8079 21.861 19.8409 21.72 19.8649C21.486 19.9039 21.351 19.9279 20.97 19.9999C20.895 20.0149 20.706 20.0479 20.55 20.0749C20.394 20.1019 20.205 20.1349 20.13 20.1499C20.055 20.1649 19.866 20.1979 19.71 20.2249C19.41 20.2759 19.233 20.3059 18.96 20.3569C18.87 20.3749 18.675 20.4109 18.525 20.4349C18.378 20.4619 18.189 20.4949 18.105 20.5099C18.024 20.5249 17.826 20.5579 17.67 20.5849C17.4 20.6299 17.232 20.6629 17.025 20.7049C16.977 20.7139 16.821 20.7409 16.68 20.7649C16.539 20.7889 16.386 20.8159 16.335 20.8249C16.287 20.8369 16.179 20.8549 16.095 20.8699C16.014 20.8849 15.816 20.9179 15.66 20.9449C15.504 20.9719 15.315 21.0049 15.24 21.0199C15.165 21.0349 15.036 21.0589 14.952 21.0769C14.61 21.1399 14.055 21.3499 13.686 21.5479C12.246 22.3339 11.268 23.7559 11.04 25.3999C11.001 25.6819 11.016 26.5099 11.064 26.7799C11.082 26.8699 11.118 27.0739 11.145 27.2299C11.196 27.5329 11.229 27.7129 11.277 27.9799C11.295 28.0699 11.331 28.2649 11.355 28.4149C11.382 28.5619 11.415 28.7449 11.43 28.8199C11.442 28.8949 11.478 29.0899 11.505 29.2549C11.55 29.5369 11.58 29.7019 11.625 29.9149C11.64 29.9929 11.682 30.2359 11.745 30.6199C11.754 30.6769 11.775 30.7849 11.79 30.8599C11.805 30.9349 11.838 31.1239 11.865 31.2799C11.892 31.4359 11.925 31.6249 11.94 31.6999C11.955 31.7749 11.988 31.9699 12.015 32.1349C12.042 32.2999 12.078 32.4949 12.09 32.5699C12.129 32.7649 12.171 32.9959 12.225 33.3049C12.252 33.4519 12.285 33.6409 12.3 33.7249C12.315 33.8059 12.348 33.9949 12.372 34.1449C12.414 34.3909 12.444 34.5619 12.495 34.8049C12.504 34.8529 12.531 35.0089 12.555 35.1499C12.579 35.2909 12.606 35.4439 12.615 35.4949C12.627 35.5429 12.645 35.6509 12.66 35.7349C12.675 35.8159 12.708 36.0139 12.735 36.1699C12.762 36.3259 12.795 36.5209 12.813 36.6049C12.828 36.6859 12.861 36.8749 12.888 37.0249C12.933 37.3009 12.966 37.4779 13.017 37.7449C13.032 37.8259 13.068 38.0239 13.095 38.1799C13.122 38.3359 13.155 38.5249 13.17 38.5999C13.182 38.6749 13.218 38.8699 13.245 39.0349C13.272 39.1999 13.305 39.3949 13.32 39.4699C13.356 39.6499 13.398 39.8809 13.455 40.2049C13.482 40.3519 13.515 40.5409 13.53 40.6249C13.545 40.7059 13.578 40.8949 13.602 41.0449C13.629 41.1919 13.662 41.3809 13.677 41.4649C13.704 41.6119 13.779 42.0379 13.833 42.3349C13.845 42.4159 13.872 42.5509 13.887 42.6349C13.902 42.7159 13.938 42.9139 13.965 43.0699C13.992 43.2259 14.025 43.4149 14.04 43.4899C14.052 43.5649 14.088 43.7599 14.115 43.9249C14.142 44.0899 14.178 44.2909 14.193 44.3749C14.262 44.7289 14.277 44.8099 14.325 45.0949C14.352 45.2599 14.388 45.4549 14.4 45.5299C14.415 45.6049 14.448 45.7939 14.475 45.9499C14.502 46.1059 14.535 46.2949 14.55 46.3699C14.577 46.5109 14.607 46.6879 14.685 47.1349C14.712 47.2819 14.745 47.4649 14.76 47.5399C14.775 47.6149 14.808 47.8039 14.835 47.9599C14.862 48.1159 14.895 48.3109 14.91 48.3949C14.925 48.4759 14.958 48.6739 14.985 48.8299C15.012 48.9859 15.045 49.1749 15.06 49.2499C15.075 49.3249 15.099 49.4599 15.117 49.5499C15.132 49.6399 15.153 49.7479 15.162 49.7899C15.174 49.8319 15.195 49.9519 15.21 50.0599C15.225 50.1679 15.252 50.3209 15.267 50.4049C15.285 50.4859 15.318 50.6839 15.345 50.8399C15.372 50.9959 15.408 51.1909 15.423 51.2749C15.456 51.4519 15.486 51.6199 15.555 52.0099C15.582 52.1659 15.615 52.3549 15.63 52.4299C15.645 52.5049 15.678 52.6939 15.705 52.8499C15.732 53.0059 15.765 53.2009 15.78 53.2849C15.795 53.3659 15.828 53.5549 15.855 53.7049C15.903 53.9749 15.939 54.1879 15.987 54.4399C16.002 54.5149 16.035 54.7099 16.065 54.8749C16.092 55.0399 16.128 55.2409 16.143 55.3249C16.161 55.4059 16.191 55.5949 16.218 55.7449C16.26 56.0029 16.278 56.1079 16.347 56.4799C16.365 56.5699 16.401 56.7649 16.425 56.9149C16.452 57.0619 16.485 57.2449 16.5 57.3199C16.515 57.3949 16.548 57.5899 16.575 57.7549C16.623 58.0429 16.656 58.2229 16.695 58.4149C16.704 58.4629 16.731 58.6189 16.755 58.7599C16.779 58.9009 16.806 59.0539 16.815 59.1049C16.842 59.2309 16.881 59.4529 16.932 59.7649C16.959 59.9119 16.992 60.1009 17.007 60.1849C17.025 60.2659 17.058 60.4639 17.085 60.6199C17.154 61.0099 17.184 61.1779 17.217 61.3549C17.232 61.4359 17.268 61.6339 17.295 61.7899C17.322 61.9459 17.355 62.1349 17.37 62.2099C17.385 62.2849 17.418 62.4799 17.445 62.6449C17.472 62.8099 17.508 63.0049 17.52 63.0799C17.559 63.2749 17.601 63.5059 17.655 63.8149C17.682 63.9619 17.715 64.1509 17.73 64.2349C17.745 64.3159 17.778 64.5049 17.802 64.6549C17.829 64.8019 17.862 64.9909 17.877 65.0749C17.895 65.1559 17.928 65.3539 17.955 65.5099C18.003 65.7829 18.036 65.9659 18.09 66.2599C18.105 66.3349 18.138 66.5239 18.165 66.6799C18.192 66.8359 18.225 67.0249 18.24 67.0999C18.255 67.1749 18.288 67.3639 18.315 67.5199C18.366 67.8199 18.396 67.9969 18.447 68.2699C18.465 68.3599 18.501 68.5549 18.525 68.7049C18.552 68.8519 18.585 69.0349 18.6 69.1099C18.612 69.1849 18.648 69.3799 18.675 69.5449C18.702 69.7099 18.735 69.9049 18.75 69.9799C18.78 70.1269 18.855 70.5529 18.9 70.8199C18.915 70.9099 18.942 71.0509 18.957 71.1349C18.972 71.2159 19.008 71.4139 19.035 71.5699C19.062 71.7259 19.095 71.9149 19.11 71.9899C19.122 72.0649 19.158 72.2599 19.185 72.4249C19.212 72.5899 19.245 72.7849 19.26 72.8599C19.296 73.0399 19.338 73.2709 19.395 73.5949C19.422 73.7419 19.455 73.9309 19.47 74.0149C19.485 74.0959 19.518 74.2849 19.542 74.4349C19.584 74.6809 19.614 74.8519 19.665 75.0949C19.68 75.1729 19.722 75.4159 19.785 75.7999C19.794 75.8569 19.815 75.9649 19.83 76.0399C19.845 76.1149 19.878 76.3039 19.905 76.4599C19.932 76.6159 19.965 76.8049 19.977 76.8799C19.992 76.9549 20.025 77.1349 20.052 77.2849C20.145 77.8189 20.196 78.0229 20.31 78.3199C20.343 78.4099 20.382 78.5119 20.391 78.5449C20.457 78.7489 20.775 79.2889 21.045 79.6549C21.48 80.2429 22.221 80.8429 22.89 81.1459C23.031 81.2089 23.172 81.2749 23.205 81.2899C23.238 81.3079 23.406 81.3649 23.58 81.4219C24.192 81.6199 24.852 81.6919 25.491 81.6319C25.707 81.6109 25.908 81.5869 25.941 81.5779C25.971 81.5689 26.091 81.5449 26.205 81.5269C26.322 81.5089 26.475 81.4849 26.55 81.4699C26.625 81.4549 26.814 81.4219 26.97 81.3949C27.303 81.3349 27.429 81.3139 27.795 81.2479C27.945 81.2209 28.146 81.1849 28.245 81.1669C28.344 81.1489 28.485 81.1249 28.56 81.1099C28.635 81.0949 28.824 81.0619 28.98 81.0349C29.382 80.9629 29.478 80.9479 29.985 80.8549C30.234 80.8099 30.504 80.7619 30.585 80.7469C30.669 80.7349 30.858 80.6989 31.005 80.6719C31.416 80.5969 31.521 80.5789 31.815 80.5279C31.965 80.5039 32.16 80.4679 32.25 80.4499C32.433 80.4169 32.61 80.3839 33.015 80.3149C33.165 80.2879 33.354 80.2549 33.435 80.2399C33.519 80.2249 33.708 80.1919 33.855 80.1649C34.278 80.0899 34.419 80.0659 34.515 80.0449C34.566 80.0359 34.728 80.0059 34.875 79.9819C35.157 79.9369 35.343 79.9009 35.595 79.8529C35.679 79.8349 35.847 79.8079 35.97 79.7869C36.282 79.7389 36.399 79.7179 36.915 79.6249C37.164 79.5799 37.425 79.5319 37.5 79.5199C37.575 79.5049 37.758 79.4749 37.911 79.4509C38.064 79.4239 38.202 79.3969 38.22 79.3849C38.259 79.3609 38.259 79.3099 38.217 79.3099C38.199 79.3099 38.07 79.2409 37.929 79.1599C37.788 79.0759 37.668 79.0099 37.662 79.0099C37.635 79.0099 37.293 78.7759 37.095 78.6229C36.588 78.2269 36.276 77.8579 36.105 77.4529L36.009 77.2249L35.877 77.2279C35.805 77.2309 35.553 77.2669 35.316 77.3119C35.082 77.3539 34.698 77.4229 34.461 77.4649C34.227 77.5069 33.969 77.5549 33.885 77.5699C33.804 77.5849 33.543 77.6299 33.306 77.6719C32.835 77.7559 32.106 77.8879 31.875 77.9299C31.794 77.9449 31.533 77.9899 31.296 78.0319C30.846 78.1129 30.117 78.2449 29.865 78.2899C29.295 78.3919 29.157 78.4159 29.025 78.4399C28.845 78.4729 28.071 78.6109 27.84 78.6529C27.75 78.6679 27.567 78.7009 27.435 78.7249C27.303 78.7489 27.12 78.7789 27.03 78.7969C26.94 78.8119 26.676 78.8599 26.445 78.9019C26.214 78.9439 25.863 79.0039 25.665 79.0399C25.167 79.1299 24.606 79.0999 24.285 78.9679C24.237 78.9469 24.147 78.9109 24.09 78.8899C23.895 78.8149 23.475 78.5179 23.268 78.3049C22.824 77.8549 22.65 77.4499 22.503 76.5349C22.485 76.4359 22.458 76.2739 22.44 76.1749C22.422 76.0759 22.389 75.8869 22.365 75.7549C22.341 75.6229 22.311 75.4399 22.293 75.3499C22.251 75.1129 22.125 74.4049 22.05 73.9849C22.014 73.7869 21.966 73.5109 21.942 73.3699C21.822 72.7009 21.744 72.2599 21.717 72.1099C21.699 72.0199 21.669 71.8369 21.645 71.7049C21.588 71.3899 21.555 71.1949 21.495 70.8649C21.468 70.7149 21.435 70.5259 21.42 70.4449C21.405 70.3609 21.36 70.1059 21.318 69.8749C21.276 69.6439 21.216 69.2929 21.18 69.0949C21.144 68.8969 21.096 68.6209 21.072 68.4799C20.952 67.8109 20.874 67.3699 20.847 67.2199C20.829 67.1299 20.799 66.9469 20.775 66.8149C20.751 66.6829 20.718 66.4939 20.7 66.3949C20.682 66.2959 20.649 66.1069 20.625 65.9749C20.601 65.8429 20.571 65.6599 20.553 65.5699C20.511 65.3329 20.385 64.6249 20.31 64.2049C20.274 64.0069 20.226 63.7309 20.202 63.5899C20.082 62.9209 20.004 62.4799 19.977 62.3299C19.959 62.2399 19.929 62.0569 19.905 61.9249C19.848 61.6099 19.815 61.4149 19.755 61.0849C19.728 60.9349 19.695 60.7459 19.68 60.6649C19.665 60.5809 19.62 60.3259 19.578 60.0949C19.536 59.8639 19.476 59.5129 19.44 59.3149C19.35 58.8079 19.29 58.4719 19.257 58.2799C19.239 58.1899 19.209 58.0069 19.185 57.8749C19.161 57.7429 19.128 57.5539 19.11 57.4549C19.092 57.3559 19.059 57.1669 19.035 57.0349C18.978 56.7199 18.945 56.5249 18.885 56.1949C18.858 56.0449 18.825 55.8559 18.81 55.7749C18.795 55.6909 18.75 55.4359 18.708 55.2049C18.666 54.9739 18.606 54.6229 18.57 54.4249C18.48 53.9179 18.42 53.5819 18.387 53.3899C18.369 53.2999 18.339 53.1169 18.315 52.9849C18.258 52.6699 18.225 52.4749 18.165 52.1449C18.138 51.9949 18.105 51.8059 18.09 51.7249C18.075 51.6409 18.042 51.4519 18.015 51.3049C17.988 51.1549 17.955 50.9659 17.94 50.8849C17.925 50.8009 17.877 50.5399 17.835 50.2999C17.793 50.0599 17.745 49.7899 17.73 49.6999C17.706 49.5589 17.61 49.0189 17.52 48.5149C17.469 48.2299 17.34 47.5099 17.265 47.0989C17.226 46.8709 17.172 46.5619 17.145 46.4149C17.118 46.2649 17.085 46.0759 17.07 45.9949C17.055 45.9109 17.01 45.6559 16.968 45.4249C16.926 45.1939 16.866 44.8429 16.83 44.6449C16.743 44.1499 16.683 43.8019 16.65 43.6249C16.635 43.5409 16.59 43.2859 16.548 43.0549C16.506 42.8239 16.452 42.5119 16.425 42.3649C16.398 42.2149 16.365 42.0259 16.35 41.9449C16.335 41.8609 16.302 41.6719 16.275 41.5249C16.248 41.3749 16.212 41.1829 16.197 41.0959C16.182 41.0119 16.155 40.8619 16.14 40.7659C16.122 40.6729 16.089 40.4869 16.065 40.3549C16.041 40.2229 16.011 40.0399 15.993 39.9499C15.978 39.8599 15.936 39.6229 15.9 39.4249C15.864 39.2269 15.816 38.9509 15.792 38.8099C15.765 38.6689 15.726 38.4469 15.705 38.3149C15.657 38.0359 15.621 37.8499 15.555 37.4749C15.528 37.3249 15.495 37.1359 15.48 37.0549C15.447 36.8749 15.309 36.1009 15.267 35.8699C15.252 35.7799 15.219 35.5969 15.195 35.4649C15.171 35.3329 15.141 35.1499 15.123 35.0599C15.108 34.9699 15.066 34.7389 15.033 34.5499C15 34.3609 14.952 34.0819 14.925 33.9349C14.898 33.7849 14.844 33.4819 14.805 33.2599C14.766 33.0379 14.712 32.7319 14.685 32.5849C14.658 32.4349 14.625 32.2459 14.61 32.1649C14.577 31.9849 14.439 31.2109 14.397 30.9799C14.382 30.8899 14.349 30.7069 14.325 30.5749C14.301 30.4429 14.271 30.2599 14.253 30.1699C14.238 30.0799 14.196 29.8429 14.16 29.6449C14.124 29.4469 14.076 29.1709 14.052 29.0299C14.028 28.8889 13.974 28.5919 13.935 28.3699C13.896 28.1479 13.842 27.8419 13.815 27.6949C13.788 27.5449 13.755 27.3559 13.74 27.2749C13.725 27.1909 13.683 26.9629 13.647 26.7649C13.56 26.3119 13.554 25.7539 13.632 25.4449C13.662 25.3279 13.752 25.0969 13.833 24.9319C14.193 24.1909 14.853 23.6869 15.645 23.5399C15.864 23.5009 16.278 23.4259 16.494 23.3869C16.578 23.3719 16.728 23.3449 16.824 23.3299C16.917 23.3119 17.103 23.2789 17.235 23.2549C17.367 23.2309 17.55 23.2009 17.64 23.1829C17.73 23.1679 17.997 23.1199 18.234 23.0779C18.705 22.9939 19.434 22.8619 19.665 22.8199C19.887 22.7809 20.604 22.6519 21.015 22.5799C21.213 22.5439 21.489 22.4959 21.63 22.4719C22.272 22.3579 22.74 22.2739 22.89 22.2469C22.98 22.2289 23.169 22.1989 23.31 22.1749C23.586 22.1299 23.676 22.1149 24.315 21.9949C24.546 21.9529 24.924 21.8839 25.155 21.8419C25.386 21.8029 25.65 21.7549 25.74 21.7369C25.83 21.7219 26.013 21.6889 26.145 21.6649C26.277 21.6409 26.46 21.6109 26.55 21.5929C26.787 21.5509 27.495 21.4249 27.915 21.3499C28.113 21.3139 28.389 21.2659 28.53 21.2419C28.671 21.2149 28.974 21.1609 29.205 21.1219C29.436 21.0799 29.694 21.0349 29.775 21.0199C29.859 21.0049 30.114 20.9599 30.345 20.9179C30.576 20.8759 30.888 20.8219 31.035 20.7949C31.185 20.7679 31.377 20.7319 31.464 20.7169C31.548 20.7019 31.698 20.6749 31.794 20.6569C31.887 20.6419 32.073 20.6089 32.205 20.5849C32.337 20.5609 32.523 20.5279 32.619 20.5099C32.712 20.4949 32.862 20.4679 32.949 20.4529C33.102 20.4259 33.378 20.3749 33.9 20.2819C34.041 20.2549 34.227 20.2219 34.314 20.2069C34.398 20.1919 34.548 20.1649 34.644 20.1499C34.737 20.1319 34.923 20.0989 35.055 20.0749C35.187 20.0509 35.37 20.0209 35.46 20.0029C35.55 19.9849 35.793 19.9459 36 19.9099C36.411 19.8439 36.663 19.7989 36.87 19.7569C36.945 19.7419 37.167 19.7029 37.365 19.6699C37.704 19.6099 38.382 19.4899 38.715 19.4299C38.925 19.3909 39.657 19.2589 40.155 19.1719C40.386 19.1299 40.65 19.0819 40.74 19.0669C40.83 19.0489 41.013 19.0189 41.145 18.9949C41.277 18.9709 41.46 18.9379 41.55 18.9229C41.781 18.8809 42.555 18.7429 42.735 18.7099C42.867 18.6859 43.005 18.6619 43.575 18.5599C43.659 18.5449 43.914 18.4999 44.145 18.4579C44.376 18.4159 44.688 18.3619 44.835 18.3349C44.985 18.3079 45.177 18.2719 45.264 18.2569C45.348 18.2419 45.492 18.2179 45.579 18.1999C45.663 18.1849 45.924 18.1399 46.155 18.0979C46.386 18.0559 46.698 18.0019 46.845 17.9749C46.995 17.9479 47.187 17.9119 47.274 17.8969C47.358 17.8819 47.508 17.8549 47.604 17.8369C48.489 17.6749 48.714 17.6509 49.056 17.6689C49.776 17.7139 50.436 18.0619 50.901 18.6469C51.219 19.0429 51.336 19.3669 51.495 20.2819C51.573 20.7379 51.657 21.2149 51.705 21.4849C51.732 21.6319 51.768 21.8269 51.783 21.9109C51.798 21.9979 51.825 22.1479 51.843 22.2409C51.858 22.3369 51.891 22.5229 51.915 22.6549C51.939 22.7869 51.972 22.9729 51.99 23.0659C52.005 23.1619 52.032 23.3119 52.047 23.3959C52.062 23.4829 52.098 23.6749 52.125 23.8249C52.152 23.9719 52.206 24.2779 52.245 24.4999C52.284 24.7219 52.338 25.0189 52.362 25.1599C52.386 25.3009 52.437 25.5769 52.47 25.7749C52.548 26.2069 52.671 26.9119 52.713 27.1399C52.731 27.2299 52.761 27.4129 52.785 27.5449C52.809 27.6769 52.842 27.8629 52.86 27.9559C52.875 28.0519 52.902 28.2019 52.917 28.2859C52.932 28.3729 52.968 28.5649 52.995 28.7149C53.022 28.8619 53.076 29.1679 53.115 29.3899C53.154 29.6119 53.208 29.9089 53.232 30.0499C53.256 30.1909 53.304 30.4669 53.34 30.6649C53.376 30.8629 53.418 31.0999 53.433 31.1899C53.451 31.2799 53.481 31.4629 53.505 31.5949C53.529 31.7269 53.562 31.9099 53.577 31.9999C53.595 32.0899 53.622 32.2459 53.64 32.3449C53.706 32.7349 53.736 32.8909 53.76 33.0199C53.775 33.0949 53.796 33.2059 53.805 33.2719L53.823 33.3889L54.249 33.3679C54.606 33.3529 56.1 33.2959 56.337 33.2929C56.397 33.2899 56.406 33.2779 56.391 33.2059C56.373 33.1099 56.223 32.2819 56.19 32.0899C56.175 32.0149 56.145 31.8319 56.118 31.6849C56.094 31.5349 56.058 31.3399 56.04 31.2499C56.025 31.1599 55.995 30.9979 55.98 30.8899C55.962 30.7819 55.944 30.6739 55.935 30.6499C55.926 30.6259 55.908 30.5179 55.89 30.4099C55.875 30.3019 55.845 30.1399 55.83 30.0499C55.812 29.9599 55.776 29.7619 55.752 29.6149C55.701 29.3269 55.683 29.2279 55.608 28.8049C55.581 28.6549 55.545 28.4539 55.527 28.3549C55.467 28.0069 55.443 27.8719 55.392 27.6049C55.317 27.1939 55.299 27.0889 55.248 26.7949C55.224 26.6449 55.188 26.4499 55.17 26.3599C55.155 26.2699 55.128 26.1199 55.113 26.0299C55.098 25.9399 55.062 25.7419 55.035 25.5949C54.963 25.1899 54.861 24.6199 54.813 24.3349C54.798 24.2509 54.765 24.0619 54.738 23.9149C54.711 23.7649 54.675 23.5639 54.657 23.4649C54.597 23.1169 54.573 22.9819 54.522 22.7149C54.447 22.3039 54.429 22.1989 54.378 21.9049C54.354 21.7549 54.318 21.5599 54.3 21.4699C54.285 21.3799 54.258 21.2299 54.243 21.1399C54.228 21.0499 54.192 20.8519 54.165 20.7049C54.057 20.1049 53.976 19.6489 53.955 19.5049C53.937 19.3909 53.928 19.3429 53.85 19.0399C53.67 18.3259 53.436 17.8099 53.031 17.2399C52.626 16.6699 52.167 16.2439 51.528 15.8479C50.931 15.4729 50.214 15.2269 49.419 15.1279C49.083 15.0829 48.627 15.0679 48.555 15.0979Z"
    />
    <path
            d="M46.476 20.5519C46.347 20.5969 46.263 20.7079 46.26 20.8309C46.26 20.9299 46.338 21.4039 46.497 22.2649C46.533 22.4449 46.56 22.6369 46.56 22.6909C46.56 22.7749 46.548 22.7899 46.464 22.8049C46.137 22.8589 45.459 22.9759 45.255 23.0149C45.123 23.0389 44.901 23.0779 44.76 23.1019C44.619 23.1259 44.397 23.1679 44.265 23.1919C44.133 23.2159 43.863 23.2669 43.665 23.2999C43.467 23.3359 43.116 23.3989 42.885 23.4379C42.654 23.4799 42.276 23.5489 42.045 23.5879C41.814 23.6299 41.559 23.6749 41.475 23.6899C41.394 23.7049 41.136 23.7499 40.905 23.7919C40.674 23.8339 40.365 23.8879 40.215 23.9149C40.068 23.9419 39.873 23.9779 39.789 23.9929C39.702 24.0079 39.552 24.0349 39.459 24.0529C39.363 24.0679 39.177 24.1009 39.045 24.1249C38.73 24.1819 38.535 24.2149 38.205 24.2749C38.058 24.3019 37.869 24.3349 37.785 24.3499C37.704 24.3649 37.515 24.3979 37.365 24.4249C37.218 24.4519 37.023 24.4879 36.939 24.5029C36.852 24.5179 36.702 24.5449 36.609 24.5599C36.234 24.6289 35.919 24.6829 35.82 24.6979C35.724 24.7129 35.709 24.7069 35.658 24.6079C35.583 24.4669 35.364 24.2449 35.208 24.1549C34.806 23.9209 34.272 23.9269 33.888 24.1729C33.648 24.3229 33.429 24.5959 33.342 24.8479C33.243 25.1329 33.285 25.5799 33.438 25.8769C33.528 26.0539 33.822 26.3209 34.041 26.4229C34.221 26.5069 34.269 26.5159 34.527 26.5159C34.845 26.5159 35.022 26.4649 35.277 26.3029C35.541 26.1319 35.778 25.7509 35.826 25.4179C35.835 25.3519 35.907 25.3279 36.225 25.2799C36.438 25.2469 36.513 25.2349 37.005 25.1449C37.536 25.0489 37.608 25.0369 37.845 24.9949C38.16 24.9379 38.355 24.9049 38.685 24.8449C38.835 24.8179 39.024 24.7849 39.105 24.7699C39.285 24.7369 40.065 24.5989 40.275 24.5599C40.359 24.5449 40.629 24.4969 40.875 24.4549C41.952 24.2659 42.174 24.2239 42.315 24.1999C42.399 24.1849 42.654 24.1399 42.885 24.0979C43.116 24.0559 43.428 24.0019 43.575 23.9749C43.725 23.9479 43.917 23.9119 44.004 23.8969C44.088 23.8819 44.238 23.8549 44.334 23.8399C44.427 23.8219 44.613 23.7889 44.745 23.7649C44.877 23.7409 45.063 23.7079 45.159 23.6929C45.252 23.6749 45.402 23.6479 45.489 23.6329C45.573 23.6179 45.759 23.5849 45.9 23.5579C46.041 23.5339 46.269 23.4919 46.41 23.4679C46.551 23.4409 46.674 23.4199 46.683 23.4199C46.695 23.4199 46.71 23.4649 46.719 23.5159C46.728 23.5699 46.752 23.6959 46.77 23.7949C46.788 23.8939 46.821 24.0829 46.845 24.2149C46.869 24.3469 46.899 24.5299 46.917 24.6199C47.013 25.1539 47.112 25.7089 47.178 26.0899C47.22 26.3299 47.265 26.5909 47.28 26.6749C47.319 26.8849 47.457 27.6649 47.49 27.8449C47.505 27.9259 47.538 28.1149 47.565 28.2649C47.625 28.5949 47.658 28.7899 47.715 29.1049C47.739 29.2369 47.769 29.4199 47.787 29.5099C47.802 29.5999 47.85 29.8639 47.892 30.0949C47.931 30.3259 47.985 30.6289 48.012 30.7699C48.036 30.9109 48.084 31.1869 48.12 31.3849C48.21 31.8949 48.318 32.5099 48.375 32.8249C48.438 33.1789 48.474 33.3709 48.51 33.5779C48.549 33.8059 48.567 33.8599 48.609 33.8599C48.681 33.8599 49.152 33.7969 49.17 33.7849C49.191 33.7699 49.179 33.6799 49.095 33.2149C49.038 32.8939 49.002 32.6989 48.945 32.3749C48.921 32.2429 48.891 32.0599 48.873 31.9699C48.858 31.8799 48.816 31.6429 48.78 31.4449C48.744 31.2469 48.696 30.9709 48.672 30.8299C48.648 30.6889 48.594 30.3919 48.555 30.1699C48.516 29.9479 48.462 29.6419 48.435 29.4949C48.408 29.3449 48.375 29.1559 48.36 29.0749C48.345 28.9909 48.312 28.8019 48.285 28.6549C48.258 28.5049 48.222 28.3129 48.207 28.2259C48.192 28.1419 48.165 27.9919 48.15 27.8959C48.132 27.8029 48.099 27.6169 48.075 27.4849C48.051 27.3529 48.021 27.1699 48.003 27.0799C47.988 26.9899 47.946 26.7529 47.91 26.5549C47.847 26.1919 47.817 26.0269 47.682 25.2649C47.64 25.0339 47.595 24.7759 47.58 24.6949C47.565 24.6109 47.532 24.4219 47.505 24.2749C47.478 24.1249 47.445 23.9359 47.43 23.8549C47.415 23.7709 47.388 23.6209 47.367 23.5159C47.349 23.4109 47.34 23.3209 47.349 23.3119C47.355 23.3029 47.556 23.2639 47.793 23.2219C48.03 23.1799 48.3 23.1319 48.39 23.1169C48.48 23.0989 48.669 23.0689 48.807 23.0449C49.269 22.9669 49.38 22.8919 49.38 22.6639C49.38 22.3909 49.209 22.3099 48.795 22.3849C48.648 22.4089 48.336 22.4659 48.105 22.5079C47.874 22.5469 47.613 22.5949 47.526 22.6099C47.436 22.6249 47.34 22.6459 47.307 22.6549C47.238 22.6789 47.208 22.6159 47.16 22.3399C47.142 22.2319 47.115 22.0849 47.1 22.0099C47.085 21.9349 47.037 21.6649 46.995 21.4099C46.902 20.8549 46.869 20.7229 46.806 20.6479C46.761 20.5999 46.608 20.5069 46.584 20.5129C46.578 20.5129 46.53 20.5309 46.476 20.5519Z"
    />
    <path
            d="M27.105 25.2109C26.538 25.4179 26.238 25.8349 26.013 26.7349C25.908 27.1519 25.743 28.0339 25.695 28.4299C25.683 28.5199 25.656 28.7029 25.632 28.8349C25.611 28.9669 25.563 29.2699 25.53 29.5099C25.497 29.7499 25.443 30.1129 25.41 30.3199C25.377 30.5269 25.332 30.8299 25.305 30.9949C25.224 31.5259 25.164 31.8139 25.074 32.1109C25.014 32.3149 24.909 32.2129 24.456 31.5049C24.279 31.2229 24.018 30.8059 23.88 30.5749C23.427 29.8099 23.274 29.5579 23.175 29.4049C23.121 29.3209 22.932 29.0329 22.758 28.7629C22.068 27.7069 21.69 27.3109 21.204 27.1399C20.79 26.9959 20.226 27.1339 19.938 27.4519C19.689 27.7279 19.575 28.0519 19.509 28.6549C19.467 29.0449 19.467 29.2129 19.497 29.9299C19.533 30.7099 19.554 31.0069 19.62 31.4599C19.635 31.5679 19.68 31.9189 19.722 32.2399C19.764 32.5609 19.833 33.0529 19.878 33.3349C19.956 33.8599 19.983 34.0399 20.037 34.4299C20.055 34.5529 20.088 34.7899 20.115 34.9549C20.142 35.1199 20.175 35.3359 20.19 35.4349C20.223 35.6629 20.301 36.1849 20.34 36.4399C20.355 36.5479 20.391 36.7699 20.415 36.9349C20.439 37.0999 20.472 37.3219 20.49 37.4299C20.559 37.9039 20.889 39.8569 20.961 40.2349C21.027 40.5919 21.177 40.8289 21.465 41.0449C21.666 41.1949 22.119 41.2339 22.362 41.1199C22.581 41.0149 22.83 40.7659 22.941 40.5439L23.037 40.3549L22.965 39.9349C22.896 39.5059 22.863 39.2989 22.725 38.4199C22.683 38.1469 22.635 37.8499 22.62 37.7599C22.602 37.6699 22.563 37.4059 22.53 37.1749C22.437 36.5209 22.353 35.9629 22.32 35.7649C22.305 35.6659 22.257 35.3629 22.215 35.0899C22.173 34.8169 22.125 34.5139 22.11 34.4149C22.095 34.3159 22.059 34.0939 22.035 33.9199C22.008 33.7459 21.975 33.5239 21.96 33.4249C21.762 32.0959 21.66 31.2319 21.69 31.1419C21.705 31.0999 21.729 31.1149 21.816 31.2229C21.873 31.2949 21.96 31.4209 22.008 31.5049C22.053 31.5859 22.2 31.8199 22.335 32.0209C22.467 32.2219 22.704 32.5879 22.86 32.8309C23.496 33.8239 23.961 34.3369 24.486 34.6219C25.092 34.9519 25.773 34.8649 26.25 34.3909C26.496 34.1479 26.586 34.0099 26.805 33.5149C26.844 33.4339 26.964 33.0739 27.027 32.8549C27.042 32.8039 27.075 32.6629 27.105 32.5399C27.132 32.4169 27.165 32.2609 27.18 32.1949C27.195 32.1289 27.228 31.9609 27.255 31.8199C27.279 31.6789 27.312 31.4959 27.33 31.4149C27.345 31.3309 27.393 31.0489 27.435 30.7849C27.504 30.3499 27.642 29.5429 27.678 29.3659C27.687 29.3269 27.708 29.2999 27.729 29.3089C27.768 29.3209 27.822 29.4799 27.945 29.9599C27.99 30.1339 28.038 30.3139 28.053 30.3649C28.068 30.4129 28.128 30.6559 28.188 30.9049C28.245 31.1509 28.311 31.4359 28.335 31.5349C28.359 31.6339 28.413 31.8709 28.455 32.0599C28.548 32.4589 28.617 32.7619 28.785 33.4759C28.809 33.5809 28.86 33.8329 28.902 34.0399C28.944 34.2469 29.001 34.5079 29.025 34.6249C29.052 34.7389 29.082 34.8949 29.097 34.9699C29.139 35.1919 29.247 35.7259 29.28 35.8549C29.304 35.9539 29.448 36.7129 29.583 37.4449C29.631 37.7029 29.754 38.2339 29.796 38.3749C29.844 38.5369 29.901 38.6239 30.039 38.7589C30.441 39.1429 31.044 39.1309 31.452 38.7289C31.605 38.5789 31.653 38.5009 31.728 38.2819C31.767 38.1619 31.77 38.1049 31.74 37.8829C31.689 37.5169 31.614 37.0699 31.53 36.6349C31.461 36.2809 31.41 36.0139 31.353 35.7049C31.239 35.0869 30.912 33.4789 30.87 33.3199C30.837 33.2029 30.72 32.6809 30.66 32.4049C30.606 32.1499 30.204 30.4519 30.153 30.2599C30.135 30.2029 30.087 30.0139 30.042 29.8399C29.4 27.3199 28.899 26.0599 28.326 25.5139C28.134 25.3309 27.999 25.2499 27.753 25.1779C27.528 25.1119 27.351 25.1209 27.105 25.2109Z"
    />
    <path
            d="M56.01 35.5129C55.737 35.5249 55.197 35.5519 54.81 35.5699C54.423 35.5879 53.931 35.6149 53.715 35.6299C53.502 35.6449 53.088 35.6689 52.8 35.6899C52.512 35.7079 52.065 35.7409 51.81 35.7679C51.555 35.7919 51.198 35.8249 51.015 35.8399C50.43 35.8879 50.031 35.9299 49.32 36.0199C49.197 36.0349 48.927 36.0679 48.72 36.0949C48.513 36.1219 48.27 36.1549 48.18 36.1699C48.09 36.1849 47.868 36.2179 47.685 36.2449C46.938 36.3529 46.308 36.4549 45.96 36.5269C45.885 36.5419 45.705 36.5779 45.555 36.6049C45.096 36.6889 44.547 36.7999 44.28 36.8629C44.139 36.8959 43.944 36.9409 43.845 36.9649C43.17 37.1239 42.942 37.1809 42.435 37.3279C41.238 37.6759 40.815 37.8199 39.81 38.2309C38.973 38.5729 38.067 39.0919 37.581 39.5089C37.074 39.9469 36.807 40.2799 36.648 40.6789C36.573 40.8679 36.567 40.9099 36.579 41.2189C36.594 41.6809 36.675 41.9209 36.939 42.2809C37.557 43.1209 38.751 43.8319 40.83 44.5999C41.124 44.7079 41.922 44.9599 42.315 45.0679C42.465 45.1099 42.66 45.1639 42.75 45.1879C43.047 45.2719 43.962 45.5029 44.1 45.5299C44.175 45.5449 44.466 45.6049 44.745 45.6649C45.204 45.7609 45.573 45.8359 46.005 45.9169C46.089 45.9349 46.215 45.9559 46.29 45.9649C46.365 45.9739 46.494 45.9949 46.575 46.0099C47.064 46.0969 47.895 46.2259 48.405 46.2949C49.302 46.4119 49.626 46.4509 50.13 46.5049C50.37 46.5289 50.679 46.5649 50.82 46.5799C52.686 46.7869 56.01 46.9429 58.545 46.9429C59.658 46.9429 60.354 46.9279 62.37 46.8649C63.588 46.8259 66.069 46.6429 67.29 46.5049C67.8 46.4449 68.16 46.4029 68.43 46.3669C68.553 46.3519 68.832 46.3189 69.045 46.2949C69.261 46.2679 69.516 46.2349 69.615 46.2169C69.714 46.2019 70.164 46.1269 70.614 46.0549C71.064 45.9799 71.535 45.8989 71.664 45.8749C71.79 45.8509 72.009 45.8089 72.15 45.7819C72.291 45.7579 72.459 45.7249 72.525 45.7099C72.591 45.6949 72.813 45.6469 73.02 45.6019C73.368 45.5299 73.878 45.4039 74.43 45.2539C75.3 45.0199 75.717 44.8879 76.635 44.5609C77.646 44.1979 78.399 43.8409 79.107 43.3969C79.578 43.0999 79.866 42.8749 80.181 42.5539C80.652 42.0799 80.829 41.7139 80.826 41.2249C80.826 40.8589 80.745 40.6309 80.472 40.1959C80.022 39.4909 78.564 38.5789 76.935 37.9849C76.305 37.7539 75.75 37.5709 75.225 37.4149C75.078 37.3699 74.874 37.3099 74.775 37.2799C74.472 37.1899 73.887 37.0429 73.215 36.8899C73.098 36.8629 72.609 36.7579 72.375 36.7069C72.084 36.6469 71.409 36.5209 71.01 36.4519C70.77 36.4099 70.509 36.3649 70.425 36.3499C70.098 36.2899 69.231 36.1639 68.67 36.0949C68.463 36.0709 68.202 36.0349 68.085 36.0199C67.875 35.9899 67.302 35.9239 66.795 35.8699C66.15 35.8039 65.865 35.7769 65.415 35.7469C65.151 35.7289 64.761 35.7049 64.545 35.6899C63.636 35.6269 62.436 35.5699 61.47 35.5369C60.144 35.4949 56.655 35.4769 56.01 35.5129Z"
    />
    <path
            d="M36.465 44.621C36.435 45.23 36.471 48.767 36.507 49.094C36.543 49.397 36.627 49.58 36.882 49.898C37.278 50.39 37.986 50.972 38.649 51.353C39.672 51.938 41.472 52.628 43.38 53.165C43.683 53.249 43.767 53.273 44.04 53.345C44.196 53.387 44.373 53.435 44.43 53.45C44.487 53.468 44.766 53.534 45.045 53.6C45.327 53.666 45.609 53.735 45.675 53.75C46.296 53.897 46.86 54.014 47.4 54.11C47.589 54.143 47.853 54.191 47.985 54.215C48.285 54.269 48.669 54.332 49.095 54.395C49.443 54.446 49.677 54.482 49.989 54.53C50.091 54.545 50.352 54.581 50.565 54.605C50.781 54.629 51.069 54.662 51.21 54.68C51.657 54.731 52.026 54.767 52.41 54.803C52.617 54.821 52.92 54.848 53.085 54.863C53.757 54.923 55.245 55.007 56.205 55.043C57.327 55.082 60.285 55.064 61.395 55.016C63.51 54.917 64.689 54.824 66.51 54.605C67.791 54.452 68.553 54.341 69.675 54.14C69.939 54.095 70.896 53.897 71.145 53.84C71.364 53.789 71.565 53.744 71.985 53.654C72.156 53.615 73.221 53.348 73.47 53.279C73.56 53.255 73.689 53.222 73.755 53.207C74.025 53.141 75.051 52.832 75.555 52.664C76.068 52.493 76.413 52.361 76.764 52.202C76.851 52.163 76.926 52.13 76.935 52.13C76.959 52.13 77.442 51.902 77.865 51.689C78.333 51.452 78.576 51.323 79.14 51.011C79.749 50.675 80.331 50.123 80.724 49.502L80.88 49.259V46.736C80.88 45.311 80.868 44.21 80.853 44.21C80.826 44.21 80.739 44.291 80.265 44.747C79.764 45.227 79.239 45.623 78.678 45.944C78.237 46.193 76.926 46.787 76.524 46.922C76.473 46.937 76.47 47.009 76.47 47.876C76.47 49.259 76.407 50.057 76.275 50.318C76.116 50.642 75.669 50.729 75.282 50.513C75.009 50.36 74.94 50.072 74.94 49.07C74.937 48.248 74.898 47.615 74.85 47.552C74.829 47.528 74.79 47.516 74.766 47.525C74.742 47.534 74.538 47.588 74.313 47.645C74.088 47.705 73.875 47.765 73.839 47.78L73.77 47.81V48.581C73.77 49.007 73.755 49.841 73.737 50.432C73.707 51.497 73.677 51.794 73.587 51.914C73.392 52.172 73.143 52.316 72.852 52.334C72.699 52.343 72.636 52.331 72.438 52.25C72.03 52.079 71.886 51.866 71.82 51.341C71.802 51.206 71.775 50.513 71.76 49.805C71.745 49.094 71.724 48.458 71.712 48.386C71.688 48.242 71.688 48.242 71.37 48.293C71.262 48.308 71.094 48.335 70.995 48.35C70.815 48.377 70.206 48.476 69.9 48.53C69.684 48.569 69.372 48.614 69.075 48.65C68.943 48.665 68.565 48.713 68.235 48.755C67.611 48.836 67.449 48.854 66.63 48.932C65.988 48.995 65.511 49.034 65.01 49.07C62.604 49.238 62.916 49.223 60.39 49.283C56.976 49.361 53.148 49.205 50.04 48.863C49.899 48.845 49.65 48.818 49.485 48.8C49.32 48.782 49.092 48.755 48.975 48.74C48.861 48.725 48.657 48.698 48.525 48.68C47.898 48.602 47.58 48.557 47.43 48.53C47.34 48.515 47.13 48.479 46.965 48.455C46.8 48.431 46.524 48.383 46.35 48.35C46.176 48.317 45.744 48.236 45.39 48.17C45.036 48.104 44.685 48.035 44.61 48.017C44.535 47.999 44.421 47.972 44.355 47.957C44.247 47.933 43.641 47.789 43.14 47.672C42.147 47.435 40.461 46.886 39.735 46.565C39.654 46.529 39.486 46.454 39.369 46.403C37.971 45.791 37.116 45.149 36.663 44.366C36.594 44.249 36.525 44.15 36.513 44.15C36.498 44.15 36.477 44.363 36.465 44.621Z"
    />
    <path
            d="M22.035 44.2999C21.795 44.3419 21.702 44.3779 21.519 44.5069C21.216 44.7199 21.039 44.9899 20.967 45.3439C20.889 45.7189 21.033 46.1629 21.321 46.4509C21.495 46.6219 21.81 46.7929 21.999 46.8169C22.137 46.8379 22.125 46.8079 22.218 47.3299C22.311 47.8519 22.413 48.4309 22.44 48.5749C22.464 48.7159 22.506 48.9379 22.695 50.0149C22.737 50.2609 22.788 50.5399 22.803 50.6299C22.821 50.7199 22.851 50.9029 22.875 51.0349C22.899 51.1669 22.932 51.3529 22.95 51.4459C22.965 51.5419 22.992 51.6919 23.007 51.7759C23.022 51.8629 23.058 52.0549 23.085 52.2049C23.145 52.5349 23.178 52.7299 23.235 53.0449C23.259 53.1769 23.292 53.3659 23.31 53.4649C23.328 53.5639 23.361 53.7529 23.385 53.8849C23.409 54.0169 23.439 54.1999 23.457 54.2899C23.49 54.4819 23.55 54.8179 23.64 55.3249C23.73 55.8349 23.838 56.4499 23.895 56.7649C23.922 56.9119 23.958 57.1069 23.973 57.1909C23.988 57.2779 24.015 57.4279 24.03 57.5209C24.048 57.6169 24.081 57.8029 24.105 57.9349C24.129 58.0669 24.159 58.2499 24.177 58.3399C24.192 58.4299 24.243 58.7059 24.285 58.9549C24.327 59.2009 24.375 59.4799 24.393 59.5699C24.411 59.6599 24.441 59.8429 24.465 59.9749C24.522 60.2899 24.555 60.4849 24.615 60.8149C24.642 60.9619 24.675 61.1509 24.69 61.2349C24.705 61.3159 24.738 61.5049 24.765 61.6549C24.792 61.8019 24.828 61.9969 24.843 62.0809C24.858 62.1679 24.885 62.3179 24.9 62.4109C24.918 62.5069 24.951 62.6929 24.975 62.8249C24.999 62.9569 25.029 63.1399 25.047 63.2299C25.083 63.4219 25.224 64.2259 25.263 64.4449C25.293 64.6279 25.368 65.0449 25.41 65.2759C25.425 65.3719 25.452 65.5219 25.467 65.6059C25.482 65.6929 25.515 65.8789 25.542 66.0199C25.635 66.5419 25.686 66.8179 25.713 66.9709C25.728 67.0579 25.755 67.2079 25.77 67.3009C25.788 67.3969 25.821 67.5829 25.845 67.7149C25.869 67.8469 25.899 68.0299 25.917 68.1199C25.95 68.3119 26.01 68.6479 26.1 69.1549C26.19 69.6649 26.298 70.2799 26.355 70.5949C26.382 70.7419 26.415 70.9309 26.43 71.0149C26.445 71.0959 26.478 71.2849 26.505 71.4349C26.532 71.5819 26.568 71.7769 26.583 71.8609C26.598 71.9479 26.625 72.0979 26.64 72.1909C26.676 72.3829 26.739 72.7519 26.787 73.0189C26.805 73.1179 26.826 73.2199 26.835 73.2499C26.856 73.3129 26.814 73.3309 26.568 73.3699C26.466 73.3849 26.229 73.4239 26.04 73.4569C24.903 73.6609 24.927 73.6549 24.849 73.7689C24.729 73.9459 24.774 74.1409 24.957 74.2279C25.092 74.2909 25.098 74.2909 26.619 74.0149C26.82 73.9759 26.922 73.9699 26.943 73.9909C26.961 74.0089 26.985 74.1019 27 74.1979C27.015 74.2939 27.063 74.5699 27.105 74.8099C27.147 75.0499 27.198 75.3259 27.213 75.4249C27.249 75.6409 27.3 75.7279 27.432 75.7909C27.564 75.8509 27.672 75.8239 27.789 75.7009C27.897 75.5839 27.897 75.5659 27.723 74.6299C27.627 74.1109 27.594 73.8739 27.618 73.8499C27.633 73.8379 27.807 73.7989 28.005 73.7659C28.203 73.7299 28.488 73.6819 28.635 73.6549C28.785 73.6279 28.977 73.5919 29.064 73.5769C29.148 73.5619 29.298 73.5349 29.394 73.5169C29.487 73.5019 29.673 73.4689 29.805 73.4449C30.12 73.3879 30.315 73.3549 30.645 73.2949C30.795 73.2679 30.984 73.2349 31.065 73.2199C31.341 73.1719 31.929 73.0669 32.76 72.9229C32.949 72.8869 33.183 72.8449 33.279 72.8269L33.453 72.7909L33.444 72.4729C33.438 72.2119 33.426 72.1549 33.39 72.1579C33.348 72.1639 32.841 72.2509 32.205 72.3649C32.058 72.3919 31.869 72.4249 31.785 72.4399C31.704 72.4549 31.44 72.5029 31.2 72.5449C30.96 72.5869 30.69 72.6349 30.6 72.6499C30.456 72.6739 29.925 72.7669 29.4 72.8629C29.31 72.8809 29.127 72.9109 28.995 72.9349C28.641 72.9979 28.455 73.0309 28.17 73.0819C27.675 73.1749 27.504 73.1959 27.48 73.1689C27.468 73.1569 27.429 72.9829 27.396 72.7849C27.36 72.5869 27.312 72.3019 27.285 72.1549C27.258 72.0049 27.222 71.8129 27.207 71.7259C27.192 71.6419 27.165 71.4919 27.15 71.3959C27.132 71.3029 27.099 71.1169 27.075 70.9849C27.051 70.8529 27.018 70.6639 27 70.5649C26.982 70.4659 26.949 70.2769 26.925 70.1449C26.901 70.0129 26.871 69.8299 26.853 69.7399C26.838 69.6499 26.796 69.4129 26.76 69.2149C26.724 69.0169 26.676 68.7409 26.652 68.5999C26.628 68.4589 26.574 68.1619 26.535 67.9399C26.496 67.7179 26.442 67.4119 26.415 67.2649C26.388 67.1149 26.352 66.9229 26.337 66.8359C26.322 66.7519 26.295 66.6019 26.28 66.5059C26.262 66.4129 26.229 66.2269 26.205 66.0949C26.181 65.9629 26.151 65.7799 26.133 65.6899C26.091 65.4529 25.965 64.7449 25.89 64.3249C25.854 64.1269 25.806 63.8509 25.782 63.7099C25.758 63.5689 25.704 63.2719 25.665 63.0499C25.626 62.8279 25.572 62.5219 25.545 62.3749C25.518 62.2249 25.482 62.0329 25.467 61.9459C25.452 61.8619 25.425 61.7119 25.41 61.6159C25.392 61.5229 25.359 61.3369 25.335 61.2049C25.311 61.0729 25.281 60.8899 25.263 60.7999C25.221 60.5629 25.095 59.8549 25.02 59.4349C24.984 59.2369 24.936 58.9609 24.912 58.8199C24.792 58.1509 24.714 57.7099 24.687 57.5599C24.669 57.4699 24.639 57.2869 24.615 57.1549C24.591 57.0229 24.558 56.8339 24.54 56.7349C24.522 56.6359 24.489 56.4469 24.465 56.3149C24.441 56.1829 24.411 55.9999 24.393 55.9099C24.297 55.3849 24.204 54.8539 24.18 54.7099C24.156 54.5599 24.09 54.1969 23.955 53.4349C23.928 53.2849 23.895 53.0959 23.88 53.0149C23.865 52.9309 23.832 52.7419 23.805 52.5949C23.778 52.4449 23.742 52.2529 23.727 52.1659C23.712 52.0819 23.685 51.9319 23.67 51.8359C23.652 51.7429 23.619 51.5569 23.595 51.4249C23.571 51.2929 23.541 51.1099 23.523 51.0199C23.508 50.9299 23.466 50.6929 23.43 50.4949C23.394 50.2969 23.346 50.0209 23.322 49.8799C23.298 49.7389 23.244 49.4419 23.205 49.2199C23.166 48.9979 23.112 48.6919 23.085 48.5449C23.058 48.3949 23.022 48.2029 23.007 48.1159C22.992 48.0319 22.965 47.8819 22.947 47.7859C22.914 47.5939 22.848 47.2219 22.8 46.9549C22.761 46.7149 22.761 46.7059 22.833 46.6849C22.959 46.6429 23.268 46.3159 23.361 46.1239C23.502 45.8359 23.538 45.5839 23.478 45.3199C23.388 44.9269 23.235 44.6929 22.944 44.5039C22.656 44.3179 22.347 44.2489 22.035 44.2999Z"
    />
    <path
            d="M81.603 51.2479C81.552 51.4039 81.471 51.6109 81.42 51.7069C81.27 51.9829 80.979 52.3279 80.67 52.5859C80.394 52.8169 79.701 53.2939 79.395 53.4649C78.981 53.6959 78.543 53.9119 78.15 54.0799C77.91 54.1819 77.661 54.2929 77.595 54.3199C77.301 54.4519 76.32 54.8059 75.795 54.9679C74.994 55.2199 74.727 55.2889 73.035 55.6999C72.909 55.7299 71.889 55.9339 71.085 56.0869C70.491 56.2009 70.119 56.2669 69.885 56.2999C69.786 56.3149 69.564 56.3479 69.39 56.3749C69.216 56.4019 68.994 56.4349 68.895 56.4499C68.325 56.5309 68.001 56.5759 67.815 56.5999C67.701 56.6119 67.449 56.6449 67.26 56.6719C67.068 56.6989 66.786 56.7319 66.63 56.7499C66.474 56.7679 66.237 56.7949 66.105 56.8099C64.623 56.9809 62.826 57.1189 60.99 57.2059C59.895 57.2569 56.295 57.2569 55.485 57.2059C54.561 57.1489 53.532 57.0619 52.875 56.9899C52.728 56.9749 52.41 56.9389 52.17 56.9149C51.93 56.8879 51.66 56.8549 51.57 56.8399C51.48 56.8249 51.285 56.7979 51.135 56.7799C50.871 56.7439 50.475 56.6869 50.115 56.6299C49.752 56.5729 49.359 56.5129 49.125 56.4769C48.87 56.4409 48.162 56.3149 47.94 56.2669C47.865 56.2519 47.631 56.2039 47.415 56.1619C47.064 56.0959 46.896 56.0599 46.515 55.9699C46.449 55.9549 46.308 55.9219 46.2 55.8979C45.639 55.7689 45.093 55.6369 45 55.6099C44.943 55.5949 44.646 55.5109 44.34 55.4299C44.034 55.3459 43.752 55.2649 43.71 55.2499C43.668 55.2379 43.554 55.2019 43.455 55.1749C43.065 55.0609 42.171 54.7549 41.7 54.5749C41.382 54.4519 40.83 54.2599 40.794 54.2599C40.707 54.2599 40.851 54.5869 41.088 54.9229C41.319 55.2499 41.631 55.5739 41.949 55.8169C42.285 56.0719 42.921 56.4709 43.212 56.6119C43.683 56.8399 44.034 56.9989 44.175 57.0529C44.259 57.0859 44.352 57.1219 44.385 57.1369C44.418 57.1519 44.541 57.1999 44.655 57.2449C44.772 57.2899 44.892 57.3379 44.925 57.3529C44.958 57.3649 45.207 57.4519 45.48 57.5419C46.29 57.8119 47.391 58.1119 48.255 58.2979C48.372 58.3219 48.519 58.3549 48.585 58.3699C48.651 58.3849 48.747 58.4029 48.795 58.4119C48.846 58.4209 48.981 58.4509 49.095 58.4749C49.677 58.6039 50.46 58.7479 51.21 58.8619C51.384 58.8889 51.6 58.9249 51.69 58.9399C51.861 58.9699 52.329 59.0389 52.695 59.0899C52.812 59.1049 53.094 59.1379 53.325 59.1649C53.775 59.2129 54.096 59.2489 54.525 59.2999C54.939 59.3479 55.941 59.4379 56.52 59.4799C57.633 59.5609 58.323 59.5999 59.655 59.6659C60.69 59.7169 65.511 59.7169 66.435 59.6659C66.816 59.6449 67.383 59.6149 67.695 59.5969C68.637 59.5459 69.822 59.4529 70.89 59.3449C71.637 59.2669 71.844 59.2459 72.24 59.1949C72.447 59.1709 72.717 59.1349 72.84 59.1199C72.963 59.1049 73.308 59.0569 73.605 59.0149C73.902 58.9699 74.226 58.9249 74.325 58.9099C74.58 58.8739 74.844 58.8289 75.225 58.7569C75.408 58.7239 75.738 58.6609 75.96 58.6189C76.563 58.5079 76.788 58.4629 77.055 58.3999C77.187 58.3699 77.403 58.3219 77.535 58.2949C77.667 58.2679 77.817 58.2319 77.865 58.2169C77.916 58.2019 78.069 58.1629 78.21 58.1269C78.429 58.0729 79.086 57.9049 79.32 57.8449C79.758 57.7279 80.883 57.3529 81.24 57.2059C81.282 57.1879 81.396 57.1459 81.495 57.1069C81.777 57.0019 82.185 56.8219 82.65 56.5909C84 55.9279 84.825 55.1449 85.038 54.3319C85.185 53.7679 84.894 53.0959 84.234 52.4749C83.997 52.2529 83.451 51.8419 83.175 51.6799C82.917 51.5299 81.78 50.9599 81.738 50.9599C81.708 50.9599 81.663 51.0529 81.603 51.2479Z"
    />
    <path
            d="M40.689 59.3209C40.701 62.0269 40.698 61.9849 40.86 62.2999C41.133 62.8339 41.808 63.4309 42.75 63.9739C42.993 64.1149 43.632 64.4359 43.89 64.5499C44.013 64.6039 44.196 64.6849 44.295 64.7299C44.802 64.9609 45.882 65.3539 46.68 65.5999C46.902 65.6689 47.118 65.7349 47.16 65.7469C47.202 65.7619 47.295 65.7889 47.37 65.8099C47.499 65.8459 47.634 65.8819 47.895 65.9569C48.411 66.1009 48.9 66.2209 49.674 66.3949C49.785 66.4219 49.929 66.4549 49.995 66.4699C50.061 66.4879 50.325 66.5419 50.58 66.5929C50.835 66.6439 51.105 66.6979 51.18 66.7129C51.255 66.7279 51.429 66.7639 51.57 66.7879C51.711 66.8149 51.885 66.8479 51.96 66.8629C52.536 66.9709 53.175 67.0729 54.03 67.1929C54.153 67.2079 54.336 67.2349 54.435 67.2499C54.63 67.2799 55.164 67.3519 55.545 67.3999C55.677 67.4179 56.001 67.4509 56.265 67.4749C56.529 67.4989 56.88 67.5319 57.045 67.5499C58.233 67.6669 59.928 67.7299 61.974 67.7299C64.038 67.7299 64.926 67.7059 67.365 67.5769C68.484 67.5199 70.125 67.3729 71.34 67.2169C71.481 67.2019 71.691 67.1749 71.805 67.1599C71.922 67.1449 72.111 67.1179 72.225 67.0999C72.342 67.0819 72.516 67.0549 72.615 67.0399C73.47 66.9079 74.019 66.8089 74.655 66.6799C74.739 66.6619 74.946 66.6199 75.12 66.5869C75.294 66.5509 75.483 66.5119 75.54 66.4999C75.597 66.4879 75.747 66.4549 75.87 66.4279C76.074 66.3829 76.641 66.2479 76.98 66.1669C77.124 66.1309 77.583 66.0109 77.76 65.9599C78.204 65.8369 79.218 65.5159 79.785 65.3179C80.175 65.1829 81.174 64.7959 81.345 64.7179C81.396 64.6939 81.57 64.6099 81.735 64.5349C82.704 64.0819 83.31 63.7339 83.886 63.2989C84.207 63.0559 84.639 62.6419 84.774 62.4439C84.975 62.1499 85.011 62.0419 85.047 61.5949C85.083 61.1449 85.095 56.8699 85.062 56.8699C85.05 56.8699 84.816 57.0889 84.543 57.3589C84.012 57.8779 83.838 58.0219 83.424 58.2889C83.118 58.4869 81.993 59.0779 81.495 59.2999C81.414 59.3389 81.264 59.4049 81.165 59.4499C81.066 59.4949 80.91 59.5549 80.82 59.5849C80.73 59.6179 80.637 59.6539 80.619 59.6689C80.589 59.6899 80.58 60.0229 80.58 61.1419C80.577 62.2369 80.568 62.6299 80.538 62.7739C80.484 63.0229 80.403 63.1219 80.145 63.2449C79.851 63.3889 79.554 63.3259 79.341 63.0799C79.173 62.8819 79.161 62.7979 79.14 61.5049C79.128 60.8599 79.11 60.3049 79.095 60.2659C79.068 60.1849 79.068 60.1849 78.768 60.2719C78.636 60.3079 78.459 60.3559 78.375 60.3769C78.294 60.3979 78.177 60.4249 78.117 60.4399L78.009 60.4699L77.991 62.0059C77.967 64.1989 77.931 64.4749 77.625 64.7569C77.46 64.9099 77.367 64.9549 77.142 64.9999C76.716 65.0839 76.206 64.8139 76.083 64.4359C76.047 64.3279 76.023 63.7369 75.972 61.8259C75.957 61.3159 75.939 60.9919 75.918 60.9649C75.891 60.9319 75.855 60.9289 75.735 60.9529C75.654 60.9679 75.498 60.9949 75.39 61.0099C75.282 61.0279 75.12 61.0519 75.03 61.0699C74.94 61.0849 74.718 61.1209 74.535 61.1449C74.355 61.1689 74.118 61.2019 74.01 61.2199C73.833 61.2469 73.476 61.2979 72.93 61.3699C72.147 61.4749 71.178 61.5799 70.29 61.6579C70.002 61.6819 69.624 61.7149 69.45 61.7299C69.276 61.7479 68.892 61.7719 68.595 61.7899C68.298 61.8049 67.98 61.8259 67.89 61.8349C67.734 61.8529 67.284 61.8739 65.64 61.9399C62.739 62.0539 59.127 61.9849 56.34 61.7569C55.482 61.6879 53.517 61.4869 53.115 61.4269C52.869 61.3909 52.638 61.3579 52.305 61.3129C52.173 61.2949 51.984 61.2679 51.885 61.2499C51.786 61.2349 51.603 61.2079 51.48 61.1899C51.252 61.1569 50.673 61.0609 50.37 61.0069C49.929 60.9259 49.683 60.8809 49.575 60.8599C49.323 60.8119 48.819 60.7069 48.705 60.6799C48.639 60.6649 48.492 60.6319 48.375 60.6049C47.895 60.4969 47.292 60.3559 47.16 60.3199C47.103 60.3019 46.941 60.2599 46.8 60.2269C46.659 60.1939 46.506 60.1549 46.455 60.1399C44.55 59.6059 43.029 58.9399 41.913 58.1509C41.382 57.7759 41.022 57.4069 40.83 57.0349C40.773 56.9239 40.713 56.8279 40.701 56.8189C40.686 56.8099 40.683 57.9349 40.689 59.3209Z"
    />
    <path
            d="M39 63.602C38.079 64.034 37.248 64.595 36.657 65.183C36.246 65.597 36.069 66.023 36.096 66.53C36.123 67.004 36.342 67.391 36.885 67.925C37.374 68.408 37.914 68.765 38.79 69.191C39.045 69.314 39.282 69.428 39.315 69.44C39.348 69.452 39.408 69.476 39.45 69.494C39.648 69.584 40.458 69.887 40.74 69.98C40.893 70.031 41.328 70.166 41.415 70.19C41.466 70.205 41.58 70.238 41.67 70.265C42.444 70.496 43.836 70.838 44.475 70.955C44.625 70.982 44.841 71.024 44.955 71.048C45.192 71.096 45.72 71.192 46.035 71.243C46.152 71.261 46.293 71.288 46.35 71.3C46.407 71.315 46.53 71.333 46.62 71.345C46.71 71.354 46.854 71.375 46.935 71.39C47.085 71.414 47.253 71.438 47.85 71.522C48.465 71.609 48.807 71.648 50.04 71.783C50.649 71.846 51.378 71.909 52.5 71.987C52.74 72.005 52.989 72.026 53.055 72.035C53.568 72.101 55.284 72.14 57.69 72.14C61.263 72.14 63.492 72.08 65.025 71.933C65.208 71.915 65.505 71.888 65.685 71.87C65.868 71.855 66.138 71.825 66.285 71.81C66.435 71.792 66.669 71.765 66.81 71.747C66.951 71.732 67.242 71.699 67.455 71.675C67.671 71.648 67.926 71.615 68.025 71.6C68.124 71.585 68.367 71.552 68.565 71.525C68.763 71.498 69.135 71.444 69.39 71.402C69.645 71.363 69.951 71.315 70.065 71.297C70.359 71.255 70.545 71.222 71.01 71.135C71.232 71.093 71.529 71.039 71.67 71.012C71.976 70.958 72.276 70.895 72.54 70.835C72.648 70.811 72.795 70.778 72.87 70.76C73.113 70.709 74.679 70.31 74.895 70.244C77.553 69.44 79.239 68.531 79.98 67.505C80.187 67.217 80.382 66.848 80.361 66.788C80.346 66.752 80.322 66.749 80.229 66.776C80.082 66.815 79.509 67.007 79.125 67.145C78.537 67.358 77.655 67.649 77.355 67.73C77.307 67.742 77.121 67.796 76.947 67.847C76.455 67.988 75.135 68.327 74.844 68.387C74.772 68.402 74.487 68.462 74.205 68.522C73.755 68.618 73.101 68.75 72.645 68.837C72.564 68.855 72.366 68.888 72.21 68.915C72.054 68.942 71.85 68.975 71.76 68.993C71.271 69.08 69.321 69.353 68.655 69.425C67.893 69.506 67.671 69.53 67.11 69.572C66.591 69.614 66.249 69.635 64.905 69.71C64.215 69.749 61.926 69.749 60.915 69.71C60.183 69.683 59.856 69.665 58.605 69.587C57.492 69.518 56.067 69.401 55.38 69.32C55.239 69.305 55.005 69.278 54.855 69.263C54.708 69.245 54.411 69.209 54.195 69.185C53.982 69.158 53.697 69.125 53.565 69.11C53.265 69.077 52.899 69.029 52.665 68.99C52.566 68.975 52.323 68.939 52.125 68.915C51.768 68.864 51.159 68.765 50.67 68.675C50.529 68.648 50.349 68.615 50.265 68.6C49.302 68.426 48.105 68.174 47.7 68.06C47.643 68.042 47.487 68.003 47.355 67.97C46.788 67.835 46.602 67.787 46.53 67.763C46.488 67.748 46.401 67.721 46.335 67.703C45.966 67.604 45.027 67.322 44.82 67.25C44.664 67.199 44.292 67.064 44.235 67.04C44.202 67.028 44.082 66.98 43.965 66.935C43.851 66.89 43.728 66.842 43.695 66.83C43.662 66.815 43.482 66.74 43.293 66.665C42.81 66.47 41.937 66.035 41.463 65.753C40.953 65.447 40.584 65.168 40.254 64.829C39.873 64.445 39.708 64.196 39.6 63.845C39.507 63.536 39.459 63.44 39.399 63.44C39.369 63.44 39.189 63.512 39 63.602Z"
    />
    <path
            d="M80.211 69.539C80.013 69.845 79.581 70.304 79.275 70.535C78.855 70.85 78.138 71.27 77.61 71.507C77.487 71.561 77.304 71.645 77.205 71.69C77.106 71.732 76.836 71.84 76.605 71.927C76.374 72.014 76.158 72.095 76.125 72.11C76.014 72.158 75.321 72.377 74.94 72.485C74.388 72.644 73.209 72.953 72.945 73.01C72.879 73.022 72.657 73.07 72.45 73.115C72.102 73.187 71.496 73.307 71.145 73.37C71.064 73.385 70.881 73.418 70.74 73.445C70.359 73.514 70.041 73.568 69.675 73.622C69.273 73.682 69.009 73.724 68.79 73.76C68.7 73.775 68.55 73.793 68.46 73.805C68.37 73.814 68.208 73.835 68.1 73.85C67.992 73.865 67.776 73.892 67.62 73.91C67.464 73.928 67.242 73.958 67.125 73.973C67.011 73.988 66.786 74.015 66.63 74.03C66.474 74.048 66.225 74.075 66.075 74.09C64.968 74.21 63.207 74.333 61.365 74.417C60.474 74.459 56.541 74.459 55.725 74.42C55.38 74.402 54.522 74.36 53.82 74.327C53.118 74.294 52.383 74.255 52.185 74.24C50.97 74.147 49.215 73.982 48.66 73.91C48.537 73.895 48.273 73.859 48.075 73.835C47.439 73.754 47.274 73.727 46.53 73.607C45.654 73.463 45.216 73.412 45.177 73.451C45.111 73.517 45.093 73.76 45.09 74.63C45.09 75.926 45.027 76.763 44.931 76.826C44.91 76.838 44.514 76.85 44.046 76.85H43.2L43.17 76.781C43.098 76.604 43.08 76.163 43.08 74.618C43.08 73.349 43.071 72.98 43.044 72.956C42.954 72.887 42.03 72.638 41.994 72.674C41.943 72.725 41.913 73.289 41.91 74.162C41.91 74.678 41.895 75.074 41.874 75.197C41.841 75.377 41.823 75.41 41.67 75.566C41.496 75.737 41.367 75.8 41.166 75.8C40.974 75.8 40.689 75.632 40.605 75.47C40.539 75.341 40.503 74.837 40.47 73.535C40.434 72.101 40.437 72.128 40.311 72.077C40.257 72.056 40.149 72.008 40.065 71.972C39.984 71.936 39.795 71.855 39.645 71.795C38.862 71.471 38.31 71.18 37.644 70.742C37.386 70.571 37.101 70.367 37.014 70.292C36.927 70.214 36.807 70.112 36.75 70.061C36.693 70.013 36.492 69.821 36.306 69.638L35.967 69.305L35.979 71.63C35.997 74.255 36 74.315 36.21 74.759C36.39 75.137 37.395 76.004 38.115 76.4C38.214 76.454 38.343 76.526 38.4 76.559C38.685 76.718 39.936 77.33 39.975 77.33C39.987 77.33 40.05 77.357 40.119 77.387C40.272 77.456 40.851 77.678 41.04 77.738C41.115 77.762 41.202 77.795 41.235 77.81C41.289 77.834 41.994 78.053 42.135 78.089C42.168 78.098 42.318 78.143 42.465 78.185C42.615 78.23 42.783 78.278 42.84 78.29C42.939 78.314 43.275 78.401 44.1 78.614C44.445 78.701 44.877 78.803 45.435 78.923C45.6 78.959 45.789 78.998 45.855 79.013C45.921 79.028 46.089 79.061 46.23 79.085C46.371 79.112 46.545 79.145 46.62 79.157C46.785 79.19 47.592 79.334 47.82 79.37C47.91 79.385 48.114 79.418 48.27 79.445C48.426 79.472 48.63 79.505 48.72 79.52C50.205 79.763 52.221 79.979 54.39 80.12C56.1 80.234 58.899 80.267 60.69 80.198C61.374 80.171 62.076 80.138 62.25 80.12C62.424 80.105 62.787 80.078 63.06 80.06C63.597 80.021 64.74 79.922 65.1 79.88C65.223 79.868 65.46 79.841 65.625 79.823C65.79 79.805 66.012 79.775 66.12 79.76C66.348 79.73 66.654 79.688 67.155 79.625C67.353 79.598 67.59 79.565 67.68 79.55C67.77 79.532 68.142 79.472 68.505 79.415C68.868 79.355 69.273 79.286 69.405 79.262C69.648 79.22 69.687 79.211 70.26 79.097C70.434 79.061 70.629 79.022 70.695 79.01C70.761 78.998 70.917 78.965 71.04 78.935C71.163 78.908 71.319 78.872 71.385 78.86C71.514 78.833 73.044 78.446 73.32 78.368C73.41 78.344 73.593 78.296 73.722 78.26C74.079 78.164 75.162 77.813 75.57 77.66C76.512 77.309 76.851 77.168 77.328 76.94C78.45 76.4 79.101 75.977 79.704 75.398C80.121 74.996 80.241 74.774 80.328 74.246C80.364 74.009 80.376 73.532 80.391 71.675C80.4 70.421 80.403 69.368 80.394 69.335C80.385 69.29 80.343 69.338 80.211 69.539Z"
    />
</svg>